<svg width="24" height="24" viewBox="0 0 24 24" fill="none" xmlns="http://www.w3.org/2000/svg">
<path fill-rule="evenodd" clip-rule="evenodd" d="M17.2974 3.57048V22.9485C17.2974 23.5285 16.8272 23.9986 16.2473 23.9986C15.6674 23.9986 15.1973 23.5285 15.1973 22.9485V1.08279C15.1973 0.890842 15.2488 0.710921 15.3387 0.556095C15.3861 0.467777 15.4471 0.384819 15.5216 0.310283C15.9313 -0.0995215 16.5956 -0.0995213 17.0053 0.310283L23.4945 6.80103C23.9042 7.21083 23.9042 7.87526 23.4945 8.28506C23.0848 8.69487 22.4205 8.69487 22.0108 8.28506L17.2974 3.57048Z" fill="#999999"/>
<path fill-rule="evenodd" clip-rule="evenodd" d="M6.70118 20.4305V1.05243C6.70118 0.472506 7.1713 0.00238419 7.75123 0.00238419C8.33115 0.00238419 8.80127 0.472506 8.80127 1.05243V22.9182C8.80127 23.1101 8.74976 23.2901 8.65982 23.4449C8.61241 23.5332 8.55145 23.6162 8.47693 23.6907C8.06722 24.1005 7.40295 24.1005 6.99325 23.6907L0.504039 17.1999C0.0943308 16.7901 0.0943317 16.1257 0.504039 15.7159C0.913745 15.3061 1.57801 15.3061 1.98772 15.7159L6.70118 20.4305Z" fill="#999999"/>
</svg>
